:FULLY-SPECIFIED
:FORCE-ALL-JOINTS-BE-3DOF
:DEGREES
17
root 7.59208 15.9063 -34.7556 7.35206 -3.9138 -6.01289
lfemur -40.6731 -1.58713 -6.04794
ltibia 20.8734 0 0
lfoot -17.891 16.9701 0
ltoes -14.219 0 0
rfemur 5.6303 6.29209 31.9458
rtibia 9.00038 0 0
rfoot -14.7534 -1.12374 0
rtoes -3.67078 0 0
lowerback -6.36731 1.22298 3.55808
upperback -1.33225 1.31333 2.45308
thorax 2.22568 0.674465 0.646928
lowerneck -19.4428 -4.7654 -11.4711
upperneck 15.4657 -6.42825 15.45
head 8.96853 -2.15984 6.39355
lclavicle -2.58542e-15 -6.60804e-15 0
lhumerus -40.0252 -8.85947 89.1276
lradius 29.3359 0 0
lwrist 7.56026 0 0
lhand -10.9071 -22.6761 0
lfingers 7.12502 0 0
lthumb 15.1177 6.83916 0
rclavicle -2.58542e-15 -6.60804e-15 0
rhumerus -41.088 18.9227 -89.2825
rradius 62.4423 0 0
rwrist -34.0661 0 0
rhand -30.1805 -30.8912 0
rfingers 7.12502 0 0
rthumb -3.49166 -60.8395 0
18
root 7.61466 15.8965 -34.5692 7.36959 -4.26303 -6.12665
lfemur -40.7441 -1.69618 -5.75619
ltibia 20.2121 0 0
lfoot -17.6137 17.1166 0
ltoes -14.0495 0 0
rfemur 6.76336 6.35326 31.9235
rtibia 8.11984 0 0
rfoot -15.1141 -1.12771 0
rtoes -4.54104 0 0
lowerback -6.51003 1.26688 3.65193
upperback -1.32337 1.35881 2.4849
thorax 2.31459 0.697516 0.633106
lowerneck -19.5195 -4.7433 -11.4097
upperneck 15.5588 -6.40019 15.3659
head 9.00329 -2.14705 6.35937
lclavicle -2.94845e-15 -6.93997e-15 0
lhumerus -40.3098 -9.06661 89.3094
lradius 29.2765 0 0
lwrist 7.37537 0 0
lhand -10.3983 -22.5337 0
lfingers 7.12502 0 0
lthumb 15.6062 6.92571 0
rclavicle -2.94845e-15 -6.93997e-15 0
rhumerus -41.3053 19.0142 -89.6278
rradius 62.557 0 0
rwrist -34.1544 0 0
rhand -30.0873 -31.1924 0
rfingers 7.12502 0 0
rthumb -3.40173 -61.1429 0
19
root 7.63729 15.8869 -34.3875 7.38639 -4.5949 -6.23121
lfemur -40.8175 -1.7646 -5.51171
ltibia 19.6561 0 0
lfoot -17.3092 17.2204 0
ltoes -13.8613 0 0
rfemur 7.84803 6.4078 31.8903
rtibia 7.29375 0 0
rfoot -15.4053 -1.12561 0
rtoes -5.4197 0 0
lowerback -6.64604 1.30652 3.73441
upperback -1.31523 1.39956 2.51834
thorax 2.39881 0.718133 0.626888
lowerneck -19.5944 -4.72273 -11.3566
upperneck 15.6452 -6.37232 15.2871
head 9.03601 -2.13452 6.32836
lclavicle -3.27419e-15 -7.15857e-15 0
lhumerus -40.5811 -9.24811 89.4813
lradius 29.2045 0 0
lwrist 7.18298 0 0
lhand -9.88593 -22.3886 0
lfingers 7.12502 0 0
lthumb 16.0981 7.0136 0
rclavicle -3.27419e-15 -7.15857e-15 0
rhumerus -41.5169 19.1007 -89.9558
rradius 62.6409 0 0
rwrist -34.2152 0 0
rhand -30.0078 -31.4752 0
rfingers 7.12502 0 0
rthumb -3.32494 -61.4276 0
20
root 7.65969 15.8775 -34.2126 7.40227 -4.90608 -6.32568
lfemur -40.8924 -1.79331 -5.31546
ltibia 19.2078 0 0
lfoot -16.9824 17.282 0
ltoes -13.6576 0 0
rfemur 8.87304 6.45532 31.847
rtibia 6.52993 0 0
rfoot -15.6263 -1.11772 0
rtoes -6.2956 0 0
lowerback -6.77394 1.34159 3.805
upperback -1.3079 1.43528 2.55292
thorax 2.47749 0.736167 0.628025
lowerneck -19.6666 -4.70388 -11.3121
upperneck 15.724 -6.34499 15.2145
head 9.06637 -2.12239 6.30076
lclavicle -3.56024e-15 -7.26602e-15 0
lhumerus -40.8364 -9.40283 89.6416
lradius 29.1213 0 0
lwrist 6.98578 0 0
lhand -9.37646 -22.2426 0
lfingers 7.12502 0 0
lthumb 16.587 7.1017 0
rclavicle -3.56024e-15 -7.26602e-15 0
rhumerus -41.7205 19.1812 -90.2632
rradius 62.6945 0 0
rwrist -34.249 0 0
rhand -29.9423 -31.7369 0
rfingers 7.12502 0 0
rthumb -3.26167 -61.6908 0
21
root 7.68157 15.8686 -34.0465 7.41706 -5.19323 -6.40917
lfemur -40.9676 -1.78321 -5.16843
ltibia 18.8695 0 0
lfoot -16.6382 17.3019 0
ltoes -13.4414 0 0
rfemur 9.82715 6.49545 31.7947
rtibia 5.83619 0 0
rfoot -15.7766 -1.10434 0
rtoes -7.15757 0 0
lowerback -6.89237 1.3718 3.86318
upperback -1.30144 1.46568 2.58816
thorax 2.54982 0.751471 0.636264
lowerneck -19.7353 -4.68692 -11.2765
upperneck 15.7945 -6.31852 15.1487
head 9.09404 -2.11079 6.27681
lclavicle -3.80419e-15 -7.26452e-15 0
lhumerus -41.0729 -9.52966 89.7887
lradius 29.0283 0 0
lwrist 6.78646 0 0
lhand -8.87634 -22.0976 0
lfingers 7.12502 0 0
lthumb 17.0669 7.18887 0
rclavicle -3.80419e-15 -7.26452e-15 0
rhumerus -41.9138 19.255 -90.5469
rradius 62.7179 0 0
rwrist -34.2563 0 0
rhand -29.8911 -31.9747 0
rfingers 7.12502 0 0
rthumb -3.2123 -61.9299 0
22
root 7.70266 15.8601 -33.8913 7.43059 -5.45302 -6.48079
lfemur -41.0423 -1.7352 -5.07159
ltibia 18.6435 0 0
lfoot -16.2816 17.2808 0
ltoes -13.2159 0 0
rfemur 10.6991 6.5278 31.7341
rtibia 5.22036 0 0
rfoot -15.8556 -1.08574 0
rtoes -7.99445 0 0
lowerback -6.99993 1.39683 3.90842
upperback -1.29593 1.49045 2.62358
thorax 2.61496 0.763894 0.651357
lowerneck -19.7997 -4.67206 -11.25
upperneck 15.8559 -6.29324 15.0904
head 9.11873 -2.09988 6.25676
lclavicle -4.00365e-15 -7.15625e-15 0
lhumerus -41.2879 -9.62747 89.9209
lradius 28.927 0 0
lwrist 6.58771 0 0
lhand -8.39203 -21.9555 0
lfingers 7.12502 0 0
lthumb 17.5316 7.27397 0
rclavicle -4.00365e-15 -7.15625e-15 0
rhumerus -42.0943 19.3211 -90.8035
rradius 62.7115 0 0
rwrist -34.2374 0 0
rhand -29.8548 -32.1861 0
rfingers 7.12502 0 0
rthumb -3.17721 -62.1422 0
23
root 7.72402 15.8508 -33.7405 7.44607 -5.6914 -6.54756
lfemur -41.1423 -1.61314 -5.04082
ltibia 18.5944 0 0
lfoot -15.8494 17.1833 0
ltoes -12.9469 0 0
rfemur 11.5573 6.5571 31.665
rtibia 4.61029 0 0
rfoot -15.8273 -1.04393 0
rtoes -8.91545 0 0
lowerback -7.10453 1.4163 3.9416
upperback -1.29053 1.50852 2.66519
thorax 2.67802 0.77283 0.679129
lowerneck -19.8623 -4.65983 -11.2375
upperneck 15.9063 -6.26821 15.0407
head 9.14025 -2.08931 6.24189
lclavicle -4.14302e-15 -6.80702e-15 0
lhumerus -41.4953 -9.68587 90.045
lradius 28.8014 0 0
lwrist 6.36954 0 0
lhand -7.87372 -21.8017 0
lfingers 7.12502 0 0
lthumb 18.0287 7.36475 0
rclavicle -4.14302e-15 -6.80702e-15 0
rhumerus -42.2766 19.3888 -91.0455
rradius 62.6701 0 0
rwrist -34.1784 0 0
rhand -29.8431 -32.3837 0
rfingers 7.12502 0 0
rthumb -3.16596 -62.3402 0
